<svg width="20" height="20" viewBox="0 0 20 20" fill="none" xmlns="http://www.w3.org/2000/svg">
<g clip-path="url(#clip0)">
<path d="M19.4141 9.41406H18.6352C18.4963 7.32277 17.6159 5.37574 16.1201 3.87988C14.6243 2.38406 12.6772 1.50367 10.5859 1.3648V0.585938C10.5859 0.262344 10.3236 0 10 0C9.67641 0 9.41406 0.262344 9.41406 0.585938V1.3648C7.32277 1.50371 5.37574 2.38406 3.87988 3.87992C2.38406 5.37574 1.50367 7.32277 1.3648 9.41406H0.585938C0.262344 9.41406 0 9.67641 0 10C0 10.3236 0.262344 10.5859 0.585938 10.5859H1.3648C1.50371 12.6772 2.3841 14.6243 3.87988 16.1201C5.37574 17.6159 7.32277 18.4963 9.41406 18.6352V19.4141C9.41406 19.7377 9.67641 20 10 20C10.3236 20 10.5859 19.7377 10.5859 19.4141V18.6352C12.6772 18.4963 14.6243 17.6159 16.1201 16.1201C17.6159 14.6243 18.4963 12.6772 18.6352 10.5859H19.4141C19.7377 10.5859 20 10.3236 20 10C20 9.67641 19.7377 9.41406 19.4141 9.41406ZM10.5859 17.4604V16.7243C10.5859 16.4007 10.3236 16.1384 10 16.1384C9.67641 16.1384 9.41406 16.4007 9.41406 16.7243V17.4604C5.75398 17.1756 2.82441 14.246 2.53961 10.5859H3.2757C3.5993 10.5859 3.86164 10.3236 3.86164 10C3.86164 9.67641 3.5993 9.41406 3.2757 9.41406H2.53961C2.82441 5.75398 5.75398 2.82441 9.41406 2.53961V3.27566C9.41406 3.59926 9.67641 3.8616 10 3.8616C10.3236 3.8616 10.5859 3.59926 10.5859 3.27566V2.53961C14.246 2.82441 17.1756 5.75398 17.4604 9.41406H16.7243C16.4007 9.41406 16.1384 9.67641 16.1384 10C16.1384 10.3236 16.4007 10.5859 16.7243 10.5859H17.4604C17.1756 14.246 14.246 17.1756 10.5859 17.4604Z" fill="#9496A6"/>
<path d="M10.278 9.72243C11.3519 9.72243 12.2224 8.85187 12.2224 7.77796C12.2224 6.70406 11.3519 5.8335 10.278 5.8335C9.20406 5.8335 8.3335 6.70406 8.3335 7.77796C8.3335 8.85187 9.20406 9.72243 10.278 9.72243Z" fill="#9496A6"/>
<path d="M10.2779 10.2778C8.28676 10.2778 6.66675 11.8978 6.66675 13.889C6.66675 14.0423 6.7912 14.1668 6.94454 14.1668H13.6113C13.7646 14.1668 13.889 14.0423 13.889 13.889C13.889 11.8978 12.269 10.2778 10.2779 10.2778Z" fill="#9496A6"/>
</g>
<defs>
<clipPath id="clip0">
<rect width="20" height="20" fill="white"/>
</clipPath>
</defs>
</svg>
