<svg width="14" height="14" viewBox="0 0 14 14" fill="none" xmlns="http://www.w3.org/2000/svg">
<g clip-path="url(#clip0_10164_2978)">
<path d="M5.3958 0H1.0208C0.457901 0 0 0.457901 0 1.0208V3.6458C0 4.2088 0.457901 4.6667 1.0208 4.6667H5.3958C5.9588 4.6667 6.4167 4.2088 6.4167 3.6458V1.0208C6.4167 0.457901 5.9588 0 5.3958 0Z" fill="#9496A6"/>
<path d="M5.3958 5.8335H1.0208C0.457901 5.8335 0 6.2914 0 6.8544V12.9794C0 13.5423 0.457901 14.0002 1.0208 14.0002H5.3958C5.9588 14.0002 6.4167 13.5423 6.4167 12.9794V6.8544C6.4167 6.2914 5.9588 5.8335 5.3958 5.8335Z" fill="#9496A6"/>
<path d="M12.9799 9.3335H8.60489C8.04189 9.3335 7.58398 9.7914 7.58398 10.3544V12.9794C7.58398 13.5423 8.04189 14.0002 8.60489 14.0002H12.9799C13.5428 14.0002 14.0007 13.5423 14.0007 12.9794V10.3544C14.0007 9.7914 13.5428 9.3335 12.9799 9.3335Z" fill="#9496A6"/>
<path d="M12.9799 0H8.60489C8.04189 0 7.58398 0.457901 7.58398 1.0208V7.1458C7.58398 7.7088 8.04189 8.1667 8.60489 8.1667H12.9799C13.5428 8.1667 14.0007 7.7088 14.0007 7.1458V1.0208C14.0007 0.457901 13.5428 0 12.9799 0V0Z" fill="#9496A6"/>
</g>
<defs>
<clipPath id="clip0_10164_2978">
<rect width="14" height="14" fill="white"/>
</clipPath>
</defs>
</svg>
