<svg width="18" height="18" viewBox="0 0 18 18" fill="none" xmlns="http://www.w3.org/2000/svg">
<path d="M14.8556 2.23103C14.8621 1.64358 14.634 1.07782 14.2218 0.659191C13.8027 0.244686 13.2394 0.00846416 12.65 2.07217e-05C12.0708 -0.0025026 11.5143 0.225519 11.1035 0.633812L14.2218 3.77749C14.6401 3.37337 14.87 2.81246 14.8556 2.23103Z" fill="#616475"/>
<path d="M13.5128 4.48741L10.3945 1.36914L3.16924 8.59444L6.28751 11.7127L13.5128 4.48741Z" fill="#616475"/>
<path d="M2.76261 9.6084L2.05273 12.8281L5.27245 12.1182L2.76261 9.6084Z" fill="#616475"/>
<path d="M17.493 16.7324H0.507043C0.227002 16.7324 0 16.9594 0 17.2395C0 17.5195 0.227002 17.7465 0.507043 17.7465H17.493C17.773 17.7465 18 17.5195 18 17.2395C18 16.9594 17.773 16.7324 17.493 16.7324Z" fill="#616475"/>
</svg>
