<svg width="20" height="14" viewBox="0 0 20 14" fill="none" xmlns="http://www.w3.org/2000/svg">
  <path d="M10 6.08698C11.6809 6.08698 13.0435 4.72436 13.0435 3.04349C13.0435 1.36262 11.6809 0 10 0C8.31916 0 6.95654 1.36262 6.95654 3.04349C6.95654 4.72436 8.31916 6.08698 10 6.08698Z" fill="#9496A6"/>
  <path d="M16.087 7.82582C17.2876 7.82582 18.2609 6.85254 18.2609 5.65193C18.2609 4.45131 17.2876 3.47803 16.087 3.47803C14.8864 3.47803 13.9131 4.45131 13.9131 5.65193C13.9131 6.85254 14.8864 7.82582 16.087 7.82582Z" fill="#9496A6"/>
  <path d="M3.97492 7.82582C5.17553 7.82582 6.14882 6.85254 6.14882 5.65193C6.14882 4.45131 5.17553 3.47803 3.97492 3.47803C2.77431 3.47803 1.80103 4.45131 1.80103 5.65193C1.80103 6.85254 2.77431 7.82582 3.97492 7.82582Z" fill="#9496A6"/>
  <path d="M10.0001 6.95654C6.88355 6.95654 4.3479 9.49219 4.3479 12.6087C4.3479 12.8487 4.5427 13.0435 4.7827 13.0435H15.2175C15.4575 13.0435 15.6523 12.8487 15.6523 12.6087C15.6523 9.49219 13.1166 6.95654 10.0001 6.95654Z" fill="#9496A6"/>
  <path d="M4.72434 8.7902C4.45826 8.73367 4.18781 8.69629 3.91304 8.69629C1.75565 8.69629 0 10.4519 0 12.6093C0 12.8493 0.194796 13.0441 0.434796 13.0441H3.55826C3.50955 12.9076 3.47825 12.7624 3.47825 12.6093C3.47825 11.1824 3.94435 9.86498 4.72434 8.7902Z" fill="#9496A6"/>
  <path d="M16.0869 8.69629C15.8122 8.69629 15.5417 8.73367 15.2756 8.7902C16.0556 9.86498 16.5217 11.1824 16.5217 12.6093C16.5217 12.7624 16.4904 12.9076 16.4417 13.0441H19.5652C19.8052 13.0441 20 12.8493 20 12.6093C20 10.4519 18.2443 8.69629 16.0869 8.69629Z" fill="#9496A6"/>
</svg>