<svg width="21" height="14" viewBox="0 0 21 14" fill="none" xmlns="http://www.w3.org/2000/svg">
<path d="M10.5 0.442871C6.48773 0.442871 2.84919 2.74255 0.164314 6.47785C-0.0547714 6.78388 -0.0547714 7.21141 0.164314 7.51743C2.84919 11.2572 6.48773 13.5569 10.5 13.5569C14.5123 13.5569 18.1508 11.2572 20.8357 7.52193C21.0548 7.21591 21.0548 6.78838 20.8357 6.48235C18.1508 2.74255 14.5123 0.442871 10.5 0.442871ZM10.7878 11.6173C8.12442 11.7928 5.92498 9.49309 6.09251 6.69837C6.22998 4.39419 8.01273 2.52654 10.2122 2.38253C12.8756 2.20701 15.075 4.50669 14.9075 7.30142C14.7657 9.6011 12.983 11.4687 10.7878 11.6173ZM10.6546 9.48409C9.21985 9.5786 8.03421 8.341 8.12872 6.83788C8.20175 5.59578 9.16401 4.5922 10.3496 4.51119C11.7844 4.41669 12.9701 5.65429 12.8756 7.15741C12.7983 8.404 11.836 9.40758 10.6546 9.48409Z" fill="#616475"/>
</svg>
