<svg width="20" height="21" viewBox="0 0 20 21" fill="none" xmlns="http://www.w3.org/2000/svg">
<path d="M19.9366 8.84876C19.8941 8.74707 19.8333 8.65457 19.7558 8.57706L17.2565 6.07775C16.9306 5.75273 16.4039 5.75273 16.0781 6.07775C15.7523 6.40359 15.7523 6.93111 16.0781 7.25613L17.1556 8.33369H12.5004C12.0395 8.33369 11.667 8.70703 11.667 9.16705C11.667 9.62708 12.0395 10.0004 12.5004 10.0004H17.1556L16.078 11.078C15.7522 11.4038 15.7522 11.9313 16.078 12.2564C16.2406 12.4197 16.4539 12.5006 16.6673 12.5006C16.8806 12.5006 17.094 12.4197 17.2565 12.2564L19.7558 9.75705C19.8333 9.68036 19.8941 9.58786 19.9366 9.48535C20.0208 9.2821 20.0208 9.05209 19.9366 8.84876Z" fill="#ADB6C2"/>
<path d="M14.1674 11.6673C13.7066 11.6673 13.334 12.0406 13.334 12.5007V16.6676H10.0005V3.3335C10.0005 2.96598 9.75884 2.64096 9.40633 2.53514L6.51199 1.66677H13.334V5.83367C13.334 6.2937 13.7066 6.66704 14.1674 6.66704C14.6282 6.66704 15.0008 6.2937 15.0008 5.83367V0.833404C15.0008 0.37334 14.6282 0 14.1674 0H0.833365C0.803364 0 0.776682 0.0125007 0.74754 0.0158212C0.708358 0.0200011 0.672536 0.0266421 0.635034 0.0358222C0.547529 0.0583234 0.468345 0.092505 0.394201 0.139148C0.37588 0.150828 0.353378 0.151649 0.335877 0.16497C0.329158 0.170009 0.326658 0.179189 0.319978 0.18419C0.229153 0.255834 0.153329 0.343339 0.0983256 0.447524C0.0866453 0.470025 0.0841452 0.494206 0.075004 0.517528C0.0483229 0.580852 0.0191807 0.642535 0.00918018 0.712538C0.00500027 0.73754 0.0125007 0.760861 0.0116803 0.785042C0.01086 0.801723 0 0.816724 0 0.833365V17.5009C0 17.8985 0.280835 18.2402 0.670036 18.3177L9.0038 19.9844C9.05799 19.9961 9.11299 20.0011 9.16713 20.0011C9.35796 20.0011 9.54547 19.9353 9.69548 19.8119C9.88799 19.6536 10.0005 19.4177 10.0005 19.1677V18.3343H14.1674C14.6282 18.3343 15.0008 17.961 15.0008 17.501V12.5007C15.0008 12.0406 14.6282 11.6673 14.1674 11.6673Z" fill="#ADB6C2"/>
</svg>
